<?xml version="1.0" encoding="UTF-8"?>
<svg width="300mm" height="107mm" version="1.1" viewBox="0 0 299.99996 106.99999" xmlns="http://www.w3.org/2000/svg"><path d="m197.72392 0c-23.85741 0-52.04394 6.403856-79.07175 15.703727-12.72754 4.379283-25.20241 9.425309-36.85771 14.805195l4.73145.01922v5.33071c3.41998-4.588106 7.6907-6.432811 14.97647-6.176028 7.36069.25958 12.10477 3.066581 12.10477 10.087685v16.488223h-12.73726v-14.588445c-.55478-4.181541-2.37001-5.251532-6.98783-4.951886-4.9007.319283-5.93998 2.743482-6.49716 7.541299v12.027096h-12.55747v-22.426964l-8.98038 4.695105 4.91139-8.029225h-13.76171l-5.75785 10.357811-1.05514 2.891081-1.13168-3.036657-5.46217-10.222749h-14.455755l14.446845 21.657022c-10.0178 7.055556-35.935301 26.257259-31.007388 41.665786 3.923543 12.300444 25.263958 13.129724 33.642628 13.161264 35.69964.1354 106.93207-18.928549 153.34435-50.737142h-1.33584v-4.074542c-5.84353 6.601842-19.00708 7.19887-25.11414.761619-2.93998-3.094403-4.31145-6.223098-3.59571-11.849168.34757-2.734909 1.62836-6.681019 7.53642-9.689774 3.91075-1.993193 15.48183-3.789939 21.18234 3.252759v-4.153719h11.60995v18.447046c3.06859-2.360371 5.71711-4.620213 8.12114-6.897201-.97732 17.122295 20.98473 18.981637 28.86454 10.196868v3.999651h11.67231v-25.765532h-11.67231v4.147249c-4.17857-5.180927-11.92904-6.011202-18.56816-4.14086 17.08271-25.968194-13.43732-30.496524-30.53719-30.496524zm-197.723917 18.831208v37.449716h32.357397v-8.774256h-17.999636v-28.67546zm149.724347 15.713435v-4.016715h11.62048v25.78656c-.35101 8.623826-7.03717 11.144736-19.13343 11.521619-6.73929.209866-19.15529-.93687-19.44602-8.665073h13.27095c.19464 2.116044 3.98355 2.634299 6.24213 2.640769 6.18212.01414 6.95569-2.420301 6.79283-9.835352-5.15783 5.76728-14.01196 5.925636-20.49397 3.306299-4.37786-1.768276-7.71217-6.160985-7.78068-12.061063-.0811-7.083378 5.00606-11.362295 10.30934-12.758217 6.7759-1.783158 14.18527-1.080182 18.61837 4.081173zm89.4151 2.140388c3.76446-.02168 8.34141 2.259843 8.34222 6.706738.002 4.859929-4.47212 6.344655-7.86425 6.458448-3.71355.124606-9.22772-1.04912-9.06866-6.477697.16364-5.584723 5.19919-6.667956 8.59069-6.687489zm-48.72844.05767c-4.00906-.042-8.50014 1.727434-8.53254 6.648912-.0349 5.285742 5.19217 6.512472 8.83947 6.439199 3.46712-.06966 8.13248-1.494996 8.15111-6.458449.0178-4.732064-4.85957-6.591973-8.45804-6.629662zm-48.21419.216991c-4.2542-.120529-8.84514 1.775151-8.84757 6.079704-.002 5.341386 5.04211 6.794409 8.71314 6.72809 3.50785-.06338 8.11627-1.602238 8.09141-6.72809-.023-4.729558-4.87065-5.992276-7.95698-6.079704zm-94.54952 30.965872-14.16421-.107832 10.27695-15.399632 21.78971-13.682631zm158.72983-2.418197-4.94784 23.711272h3.00858l4.16569-20.726132 3.10713 20.713191h2.99141l12.03674-20.719662-4.80425 20.713192 3.03644.0096 5.01854-23.711271h-4.40783l-11.66341 20.372707-3.15216-20.381603zm56.35719.02215-.717 3.486006h2.86718l.7575-3.486006zm-3.22716 6.107526c-3.45003-.05945-5.28643.948677-7.24286 4.110935l.80229-3.689328h-2.62503l-3.58713 17.149787h2.82215l1.81309-8.416777c.61626-3.160722 2.6571-5.852848 5.95066-6.133164l1.39674.01882zm-20.73205.02592c-4.0094.04828-6.64285 2.276906-7.15711 5.602454h2.84783s.23313-3.117776 4.66495-3.100874c2.60358.0099 3.42282 1.251964 3.33002 2.407523-.16724 2.082076-1.19785 2.11022-2.69785 2.368944-1.79267.309869-3.66431.327201-5.39567.668749-3.3514.661042-4.80855 2.630008-4.82353 4.92196-.0172 2.96815 1.359 5.118811 5.72358 5.090989 3.84215-.02548 5.30571-2.555114 5.30571-2.555114s-.35979 1.628516 1.00777 2.317581c1.16853.588278 2.93569-.168869 2.93569-.168869l.40565-2.13464s-.94841.445103-1.31876.141679c-.45364-.371707-.39921-1.11026-.25028-1.925089l1.842-8.115114c.73055-5.204082-3.77407-5.517846-6.42-5.520179zm53.36577.0418c-3.87211.255084-7.20852 3.841295-7.94143 8.49766-.62378 3.965357.24021 6.58041 2.3807 8.133711 1.95003 1.415172 5.22643 1.611378 7.50857.87136 2.3207-.752424 4.23639-2.612942 4.89001-5.405598h-2.86069c-.79029 2.480232-3.12431 3.447504-5.15573 3.287053-2.58-.203856-3.93642-1.702606-4.12284-3.80272-.0531-.594489.0766-1.788821.0766-1.788821h12.84821c.42728-2.134156.32038-5.003254-.71015-6.779441-1.34592-2.545453-4.29549-3.180669-6.91325-3.013204zm-21.16549 2.970655.50014-2.615051h-2.71931c-1.19638 5.716571-3.8334 18.316024-3.58923 17.149788h2.82215l1.9084-9.122826c.34864-1.802326 1.23194-4.34847 4.65427-5.666671 1.18845-.457525 2.86288-.37364 3.78854.499903.70071.661253.81535 1.395276.54107 2.837622l-2.44071 11.448826h2.82425l2.41925-11.442356c.483-2.559407.16027-5.65381-3.58713-6.011202-2.87223-.209724-5.32042.376487-7.12169 2.921967zm-9.57238-2.652075-3.57855 17.196696h2.83074l3.58713-17.183756zm31.56456 2.139984c4.75388-.150689 4.2236 4.8 4.2236 4.8h-9.8615c.59766-2.070106 2.22027-4.691708 5.6379-4.8zm-51.27864 6.270167c-.52886 2.974543-1.36864 6.195278-5.28643 6.642523-2.12868.242661-3.96857-.530928-4.00931-2.360373-.052-2.392481 2.36353-2.884694 4.03716-3.135087 1.93441-.499395 3.80061-.286828 5.25858-1.147063z" fill="#fff" stroke-width="0"/></svg>
